<svg xmlns="http://www.w3.org/2000/svg" viewBox="0 0 648.09 128"><defs><style>.cls-1{fill:#63707e;}</style></defs><title>Asset 4</title><g id="Layer_2" data-name="Layer 2"><g id="Layer_1-2" data-name="Layer 1"><path class="cls-1" d="M212,0a3.77,3.77,0,0,1,2.74.91,3.24,3.24,0,0,1,.91,2.38,6.09,6.09,0,0,1-.36,1.83l-50.1,120.5a4.66,4.66,0,0,1-1.47,1.74,3.41,3.41,0,0,1-2,.64,3.82,3.82,0,0,1-2.1-.64,3.22,3.22,0,0,1-1.37-1.74L108.45,5.67a6.71,6.71,0,0,1-.37-.92,4.08,4.08,0,0,1-.18-1.28A3.22,3.22,0,0,1,109,1a3.45,3.45,0,0,1,2.37-1,4.25,4.25,0,0,1,4,2.93l47.54,114.46-2.19-.18L208.47,2.38A3.86,3.86,0,0,1,212,0Z"/><path class="cls-1" d="M255.29,124.16A4.43,4.43,0,0,1,254,126.9a3.52,3.52,0,0,1-2.56,1.1,3.67,3.67,0,0,1-2.84-1.1,3.89,3.89,0,0,1-1-2.74V3.84a3.68,3.68,0,0,1,1.1-2.74,3.84,3.84,0,0,1,6.58,2.74Z"/><path class="cls-1" d="M335.17,0a36.38,36.38,0,0,1,18.2,4.39,30.64,30.64,0,0,1,12.06,12.25,37.48,37.48,0,0,1,4.3,18.29,39.2,39.2,0,0,1-4.3,18.46,32.56,32.56,0,0,1-12.06,13,34.2,34.2,0,0,1-18.2,4.75H294.58l.73-1.28v54.49a3.38,3.38,0,0,1-1.19,2.56,3.83,3.83,0,0,1-2.65,1.1,3.6,3.6,0,0,1-3.84-3.66V3.66a3.47,3.47,0,0,1,1.1-2.56A3.51,3.51,0,0,1,291.29,0Zm0,63.82a26.39,26.39,0,0,0,14.36-3.75,25.28,25.28,0,0,0,9.23-10.33,32.73,32.73,0,0,0,3.29-14.81,30.34,30.34,0,0,0-3.29-14.54,24.16,24.16,0,0,0-9.23-9.6,28,28,0,0,0-14.36-3.48H294.76l.55-.91v58l-.73-.55Z"/><path class="cls-1" d="M406.07,0a3.76,3.76,0,0,1,3.84,3.84V124.16a4.48,4.48,0,0,1-1.28,2.74,3.52,3.52,0,0,1-2.56,1.1,3.67,3.67,0,0,1-2.84-1.1,3.89,3.89,0,0,1-1-2.74V3.84A3.74,3.74,0,0,1,406.07,0Zm-.92,58.51h88.69l-.37,7.32H404.05ZM493.47,0a3.75,3.75,0,0,1,2.75,1.1,3.71,3.71,0,0,1,1.09,2.74V124.16A4.43,4.43,0,0,1,496,126.9a3.51,3.51,0,0,1-2.56,1.1,3.65,3.65,0,0,1-2.83-1.1,3.9,3.9,0,0,1-1-2.74V3.84A3.76,3.76,0,0,1,493.47,0Z"/><path class="cls-1" d="M648.09,64a73.9,73.9,0,0,1-4.36,26,59.48,59.48,0,0,1-12.35,20.27,55.19,55.19,0,0,1-18.85,13.16,63.72,63.72,0,0,1-47.64,0,55.15,55.15,0,0,1-18.84-13.16A59.34,59.34,0,0,1,533.69,90,74.13,74.13,0,0,1,529.34,64a74.23,74.23,0,0,1,4.35-26,59.39,59.39,0,0,1,12.36-20.26A55.28,55.28,0,0,1,564.89,4.62a63.72,63.72,0,0,1,47.64,0,55.32,55.32,0,0,1,18.85,13.16A59.53,59.53,0,0,1,643.73,38,74,74,0,0,1,648.09,64Zm-7.47,0q0-17.07-6.66-29.87a49.69,49.69,0,0,0-18.31-19.91Q604,7.11,588.71,7.11a50.76,50.76,0,0,0-26.84,7.11,49.41,49.41,0,0,0-18.4,19.91Q536.79,46.94,536.8,64t6.67,29.87a49.41,49.41,0,0,0,18.4,19.91,50.76,50.76,0,0,0,26.84,7.11q15.28,0,26.94-7.11A49.69,49.69,0,0,0,634,93.87Q640.62,81.06,640.62,64Z"/><path class="cls-1" d="M57.43,98H20.48a2,2,0,0,1-1.74-1,2,2,0,0,1,0-2L37.22,63A2,2,0,0,1,39,62a2,2,0,0,1,1.73,1L59.16,95a2,2,0,0,1-1.73,3ZM23.94,94H54L39,68Z"/><path class="cls-1" d="M39,50a2,2,0,0,1-2-2V32a2,2,0,0,1,4,0V48A2,2,0,0,1,39,50Z"/><path class="cls-1" d="M62.05,74a2,2,0,0,1-1-3.73l13.85-8a2,2,0,1,1,2,3.46l-13.85,8A2,2,0,0,1,62.05,74Z"/><path class="cls-1" d="M15.85,74a2,2,0,0,1-1-.27L1,65.73a2,2,0,1,1,2-3.46l13.86,8a2,2,0,0,1-1,3.73Z"/></g></g></svg>